<?xml version="1.0" standalone="no"?>
<!DOCTYPE svg PUBLIC "-//W3C//DTD SVG 20010904//EN"
 "http://www.w3.org/TR/2001/REC-SVG-20010904/DTD/svg10.dtd">
<svg version="1.0" xmlns="http://www.w3.org/2000/svg"
 width="546.000000pt" height="546.000000pt" viewBox="0 0 546.000000 546.000000"
 preserveAspectRatio="xMidYMid meet">
<metadata>
Created by potrace 1.14, written by Peter Selinger 2001-2017
</metadata>
<g transform="translate(0.000000,546.000000) scale(0.100000,-0.100000)"
fill="#000000" stroke="none">
<path d="M2661 5395 c-60 -64 -62 -68 -45 -86 16 -18 16 -20 0 -38 -17 -19
-16 -21 28 -69 25 -27 46 -52 46 -56 0 -4 -38 -45 -85 -92 -47 -46 -85 -88
-85 -93 0 -10 197 -211 207 -211 2 0 52 47 111 105 l106 105 -92 90 c-51 49
-92 92 -92 95 0 2 22 27 50 54 48 48 49 49 29 66 -17 16 -18 20 -4 35 8 9 15
21 15 26 0 5 -28 38 -63 72 l-64 63 -62 -66z m109 -16 c38 -39 51 -57 42 -63
-5 -3 -25 8 -43 24 -19 16 -39 30 -45 30 -5 0 -23 -14 -39 -30 -19 -20 -32
-27 -39 -20 -7 7 4 25 34 55 46 47 48 47 90 4z m-14 -118 c-24 -23 -26 -24
-50 -7 -33 21 -33 35 1 63 l27 24 23 -28 24 -27 -25 -25z m-76 -22 c28 -39 46
-41 82 -9 38 35 65 41 48 10 -12 -22 -72 -70 -87 -70 -17 0 -85 69 -78 80 9
15 19 12 35 -11z m133 -204 l77 -75 -75 -75 c-41 -41 -78 -75 -83 -75 -4 0
-44 33 -87 74 l-78 75 78 75 c43 42 82 76 85 76 4 0 41 -34 83 -75z"/>
<path d="M2720 4960 c0 -5 5 -10 11 -10 5 0 7 5 4 10 -3 6 -8 10 -11 10 -2 0
-4 -4 -4 -10z"/>
<path d="M2720 4930 c0 -5 5 -10 11 -10 5 0 7 5 4 10 -3 6 -8 10 -11 10 -2 0
-4 -4 -4 -10z"/>
<path d="M2720 4896 c0 -9 5 -16 10 -16 6 0 10 4 10 9 0 6 -4 13 -10 16 -5 3
-10 -1 -10 -9z"/>
<path d="M2720 4859 c0 -5 5 -7 10 -4 6 3 10 8 10 11 0 2 -4 4 -10 4 -5 0 -10
-5 -10 -11z"/>
<path d="M1952 4959 c-16 -25 -8 -55 17 -62 27 -7 51 11 51 36 0 46 -45 63
-68 26z"/>
<path d="M2205 4961 c-87 -40 -137 -109 -201 -274 -48 -123 -78 -182 -118
-226 -21 -23 -21 -24 0 -11 32 20 93 109 128 191 101 230 173 309 281 309 29
0 160 -58 175 -78 3 -4 28 -25 55 -47 28 -22 56 -45 63 -52 7 -7 16 -13 20
-13 9 1 -98 103 -159 152 -81 67 -168 84 -244 49z"/>
<path d="M3088 4963 c-39 -17 -105 -69 -183 -147 -64 -63 -47 -55 38 18 40 34
107 77 150 96 78 36 140 22 213 -46 44 -42 53 -56 143 -244 57 -118 81 -155
126 -190 10 -8 2 7 -18 33 -40 52 -63 101 -108 221 -52 141 -112 221 -196 258
-48 21 -115 22 -165 1z"/>
<path d="M3452 4968 c-17 -17 -15 -56 5 -66 22 -13 63 6 63 29 0 20 -26 49
-44 49 -6 0 -17 -5 -24 -12z"/>
<path d="M1884 4886 c-15 -40 21 -81 50 -57 21 17 21 57 0 65 -26 10 -44 7
-50 -8z"/>
<path d="M3522 4888 c-13 -13 -17 -58 -4 -59 4 0 15 -2 25 -4 9 -2 24 6 32 17
26 39 -20 79 -53 46z"/>
<path d="M2263 4847 c-19 -11 -15 -12 37 -13 39 0 68 -7 91 -21 19 -11 63 -38
99 -60 63 -38 140 -62 140 -42 0 5 -9 9 -19 9 -11 0 -55 24 -98 53 -43 30 -91
61 -108 69 -38 19 -113 22 -142 5z"/>
<path d="M3064 4846 c-17 -8 -68 -39 -114 -70 -46 -31 -89 -56 -96 -56 -7 0
-15 -4 -18 -9 -9 -13 53 -2 89 16 16 9 63 36 104 61 62 39 81 45 127 46 46 1
52 3 37 14 -22 16 -90 15 -129 -2z"/>
<path d="M2152 4828 c-18 -18 -14 -35 9 -41 22 -6 35 13 25 38 -7 18 -18 19
-34 3z"/>
<path d="M3277 4834 c-12 -12 -8 -42 6 -47 24 -9 44 10 31 30 -12 20 -27 26
-37 17z"/>
<path d="M1840 4789 c-9 -15 -8 -24 1 -35 18 -22 53 -13 57 15 6 40 -39 56
-58 20z"/>
<path d="M3572 4801 c-21 -13 -11 -55 14 -59 30 -4 48 21 34 47 -11 22 -27 26
-48 12z"/>
<path d="M1923 4688 c-85 -174 -205 -318 -301 -360 -71 -32 -150 -13 -190 46
-26 38 -28 66 -7 105 21 41 67 55 113 34 l37 -16 -34 -7 c-35 -8 -51 -24 -51
-52 0 -40 51 -56 86 -27 16 13 19 69 3 69 -5 0 -8 4 -4 9 9 15 -45 51 -76 51
-93 0 -146 -111 -90 -188 29 -42 70 -62 137 -69 44 -5 62 -1 107 21 82 40 175
151 247 293 36 73 84 193 76 193 -2 0 -26 -46 -53 -102z"/>
<path d="M3489 4762 c29 -101 119 -263 199 -357 77 -92 144 -129 223 -122 116
10 167 66 160 174 -2 31 -43 72 -79 79 -35 7 -98 -11 -105 -30 -3 -8 7 -7 32
6 45 22 90 11 115 -27 47 -71 -14 -160 -116 -170 -61 -6 -118 23 -192 97 -75
76 -113 131 -184 268 -62 120 -65 124 -53 82z"/>
<path d="M2104 4769 c-3 -6 0 -17 8 -25 13 -13 16 -13 27 0 7 8 10 20 6 26 -8
13 -32 13 -41 -1z"/>
<path d="M3315 4770 c-9 -15 13 -40 30 -34 7 3 12 13 11 22 -3 20 -31 28 -41
12z"/>
<path d="M2077 4706 c-7 -17 18 -40 33 -31 15 9 12 32 -6 39 -21 8 -21 8 -27
-8z"/>
<path d="M2689 4703 c-8 -9 -14 -30 -14 -47 0 -29 -2 -30 -45 -32 -258 -15
-543 -107 -750 -243 -72 -47 -209 -151 -217 -165 -4 -6 10 2 31 18 242 183
564 314 846 344 85 9 308 8 390 -1 154 -17 388 -86 525 -154 79 -40 184 -102
260 -155 l70 -49 -45 41 c-212 193 -592 346 -910 365 -25 2 -48 3 -51 4 -3 1
-4 14 -1 29 7 52 -57 84 -89 45z"/>
<path d="M3353 4713 c-20 -7 -15 -30 7 -36 15 -4 20 0 20 13 0 22 -9 29 -27
23z"/>
<path d="M1811 4696 c-16 -20 -3 -46 24 -46 27 0 36 17 23 43 -10 20 -31 22
-47 3z"/>
<path d="M3602 4693 c-13 -26 -4 -43 23 -43 27 0 40 26 24 46 -16 19 -37 17
-47 -3z"/>
<path d="M2937 4694 c-1 -1 -22 -5 -46 -8 -24 -3 -46 -8 -49 -11 -6 -6 38 -7
231 -9 112 -1 134 1 120 12 -9 6 -37 13 -62 13 -119 3 -193 4 -194 3z"/>
<path d="M2259 4670 l-24 -20 27 9 c14 6 82 8 150 7 127 -4 226 4 197 16 -8 3
-85 7 -171 7 -143 2 -157 0 -179 -19z"/>
<path d="M2054 4639 c-8 -14 11 -33 25 -25 6 4 11 14 11 22 0 16 -26 19 -36 3z"/>
<path d="M3370 4630 c0 -11 6 -20 13 -20 19 0 27 10 20 26 -8 21 -33 17 -33
-6z"/>
<path d="M1773 4594 c-3 -8 2 -23 11 -32 15 -15 17 -15 32 0 21 21 11 48 -16
48 -11 0 -23 -7 -27 -16z"/>
<path d="M3634 4595 c-10 -24 21 -52 40 -36 8 6 13 20 12 29 -4 23 -44 28 -52
7z"/>
<path d="M2030 4570 c0 -19 20 -27 33 -13 8 7 -11 33 -24 33 -5 0 -9 -9 -9
-20z"/>
<path d="M3397 4575 c-7 -15 1 -25 20 -25 7 0 13 6 13 14 0 19 -27 28 -33 11z"/>
<path d="M1995 4521 c-7 -12 12 -24 25 -16 11 7 4 25 -10 25 -5 0 -11 -4 -15
-9z"/>
<path d="M3435 4521 c-7 -12 12 -24 25 -16 11 7 4 25 -10 25 -5 0 -11 -4 -15
-9z"/>
<path d="M1740 4510 c-18 -11 -4 -42 17 -38 10 2 19 10 21 19 4 19 -19 31 -38
19z"/>
<path d="M3686 4511 c-9 -14 5 -41 20 -41 20 0 30 30 13 41 -18 11 -26 11 -33
0z"/>
<path d="M1940 4475 c0 -8 5 -15 10 -15 6 0 10 7 10 15 0 8 -4 15 -10 15 -5 0
-10 -7 -10 -15z"/>
<path d="M3500 4475 c0 -8 5 -15 10 -15 6 0 10 7 10 15 0 8 -4 15 -10 15 -5 0
-10 -7 -10 -15z"/>
<path d="M3888 4483 c-27 -7 -24 -59 5 -77 47 -31 94 13 67 63 -10 20 -33 25
-72 14z"/>
<path d="M1670 4419 c0 -14 5 -19 17 -17 26 5 29 38 4 38 -15 0 -21 -6 -21
-21z"/>
<path d="M3755 4430 c-8 -14 3 -30 21 -30 8 0 14 9 14 20 0 21 -24 28 -35 10z"/>
<path d="M1290 4380 c0 -5 7 -10 15 -10 8 0 15 5 15 10 0 6 -7 10 -15 10 -8 0
-15 -4 -15 -10z"/>
<path d="M4140 4380 c0 -5 7 -10 16 -10 8 0 12 5 9 10 -3 6 -10 10 -16 10 -5
0 -9 -4 -9 -10z"/>
<path d="M1310 4326 c0 -8 5 -18 10 -21 6 -3 10 3 10 14 0 12 -4 21 -10 21 -5
0 -10 -6 -10 -14z"/>
<path d="M4130 4320 c0 -19 3 -21 12 -12 9 9 9 15 0 24 -9 9 -12 7 -12 -12z"/>
<path d="M1332 4268 c3 -7 13 -15 22 -16 12 -3 17 1 14 10 -3 7 -13 15 -22 16
-12 3 -17 -1 -14 -10z"/>
<path d="M4095 4271 c-3 -5 -1 -12 5 -16 12 -7 30 2 30 16 0 12 -27 12 -35 0z"/>
<path d="M1385 4236 c-19 -14 -19 -15 -2 -22 22 -8 30 -1 25 21 -3 14 -5 14
-23 1z"/>
<path d="M1560 4235 c-10 -11 -10 -19 -2 -27 15 -15 44 -2 40 19 -4 23 -22 27
-38 8z"/>
<path d="M3871 4241 c-17 -11 -7 -41 13 -41 19 0 28 14 20 34 -7 18 -13 19
-33 7z"/>
<path d="M4050 4230 c0 -11 6 -20 14 -20 24 0 28 18 6 30 -17 9 -20 8 -20 -10z"/>
<path d="M1436 4215 c-9 -24 -8 -25 15 -25 14 0 19 5 17 17 -4 23 -24 27 -32
8z"/>
<path d="M1496 4215 c-6 -17 16 -31 33 -21 13 9 2 36 -14 36 -7 0 -16 -7 -19
-15z"/>
<path d="M3926 4222 c-2 -4 -1 -14 4 -21 11 -19 41 -6 34 14 -6 16 -29 20 -38
7z"/>
<path d="M3986 4215 c-3 -9 1 -18 10 -22 19 -7 39 11 30 26 -10 16 -33 13 -40
-4z"/>
<path d="M1076 4161 c-4 -7 -5 -15 -2 -18 9 -9 19 4 14 18 -4 11 -6 11 -12 0z"/>
<path d="M4370 4156 c0 -9 5 -16 10 -16 6 0 10 4 10 9 0 6 -4 13 -10 16 -5 3
-10 -1 -10 -9z"/>
<path d="M1125 4140 c-3 -5 3 -10 15 -10 12 0 18 5 15 10 -3 6 -10 10 -15 10
-5 0 -12 -4 -15 -10z"/>
<path d="M4305 4140 c-3 -5 3 -10 15 -10 12 0 18 5 15 10 -3 6 -10 10 -15 10
-5 0 -12 -4 -15 -10z"/>
<path d="M1182 4116 c1 -10 8 -17 13 -17 15 1 12 24 -3 29 -9 3 -13 -2 -10
-12z"/>
<path d="M4255 4120 c-4 -6 -3 -16 3 -22 6 -6 12 -6 17 2 4 6 3 16 -3 22 -6 6
-12 6 -17 -2z"/>
<path d="M1221 4076 c-12 -14 -5 -26 16 -26 15 0 18 26 4 34 -5 3 -14 0 -20
-8z"/>
<path d="M4214 4076 c-4 -11 -1 -21 7 -27 17 -11 26 18 10 34 -7 7 -12 5 -17
-7z"/>
<path d="M1000 4068 c-44 -12 -58 -25 -75 -74 -15 -43 -6 -72 33 -107 31 -28
83 -19 101 17 12 26 11 30 -8 49 -17 17 -25 19 -48 11 -24 -9 -28 -15 -27 -47
1 -43 -12 -39 -32 8 -24 59 18 125 80 125 94 0 151 -116 107 -216 -42 -93
-194 -218 -372 -304 -105 -50 -112 -58 -24 -26 203 76 377 203 426 311 34 73
16 180 -39 228 -28 25 -80 35 -122 25z"/>
<path d="M4337 4037 c-43 -41 -61 -95 -54 -158 8 -63 28 -101 86 -158 95 -94
200 -158 359 -217 85 -32 78 -26 -28 27 -253 126 -402 275 -386 389 10 71 45
114 102 126 42 8 88 -17 104 -55 11 -27 10 -36 -9 -73 l-20 -42 26 26 c19 20
26 36 25 62 -3 69 -47 106 -127 106 -37 0 -51 -6 -78 -33z"/>
<path d="M2730 4031 c0 -6 -32 -42 -70 -81 -65 -66 -71 -74 -68 -110 1 -21 4
-39 7 -38 16 1 50 -15 46 -22 -3 -4 3 -7 13 -6 9 0 16 -5 14 -12 -1 -8 2 -11
7 -7 6 3 8 11 5 19 -3 7 2 13 9 13 32 0 -7 -61 -47 -73 -11 -4 -31 -18 -44
-31 -55 -60 -72 -140 -42 -208 20 -46 74 -108 85 -97 4 4 6 0 3 -8 -5 -17
-119 -23 -191 -9 -95 17 -157 23 -237 23 -74 0 -93 -4 -150 -31 -47 -22 -85
-32 -140 -37 -174 -13 -290 -81 -339 -198 -16 -40 -20 -66 -17 -141 2 -51 6
-102 9 -114 14 -54 59 -168 84 -211 53 -94 73 -137 68 -149 -2 -7 0 -12 5 -10
13 3 60 -64 53 -76 -3 -6 -2 -7 3 -4 6 3 16 2 24 -4 13 -7 13 -9 0 -9 -9 -1
-6 -5 8 -10 12 -5 22 -14 22 -20 0 -6 -6 -8 -12 -4 -8 4 -10 3 -5 -2 5 -5 13
-9 19 -9 19 0 39 -108 41 -220 l2 -110 28 3 c17 2 27 -2 27 -10 0 -8 4 -7 10
4 6 10 20 15 35 13 14 -1 25 1 25 4 0 4 8 7 18 7 9 1 33 4 52 8 19 4 52 9 73
11 21 2 41 6 44 9 4 3 13 0 21 -7 13 -10 14 -9 7 2 -6 11 -3 13 19 7 14 -3 26
-3 26 2 0 5 10 8 23 7 12 -1 34 2 49 6 21 6 26 4 21 -7 -3 -8 -10 -11 -16 -7
-6 3 -7 1 -3 -5 4 -7 3 -12 -3 -12 -5 0 -12 6 -14 13 -4 9 -6 9 -6 0 -1 -7 14
-20 32 -28 20 -10 26 -11 16 -3 -16 13 -15 15 1 36 13 15 20 18 23 10 4 -9 6
-10 6 -1 1 7 11 10 26 7 16 -3 25 0 25 8 0 9 3 9 9 -1 8 -12 12 -12 25 -2 12
10 16 10 16 2 0 -7 5 -9 13 -4 16 10 127 13 127 3 0 -4 11 -12 25 -18 15 -7
25 -8 25 -2 0 6 -6 10 -14 10 -8 0 -16 7 -20 15 -4 12 -2 13 13 5 14 -7 21 -6
24 3 3 7 6 5 6 -5 1 -10 7 -18 14 -18 7 0 8 -3 2 -8 -5 -4 -17 -16 -25 -27
-11 -16 -9 -15 12 3 26 24 26 24 33 3 3 -12 11 -21 17 -21 6 0 -2 16 -17 36
-15 19 -24 38 -21 41 3 4 6 2 6 -4 0 -5 14 -7 31 -5 21 3 30 1 25 -6 -3 -6 -1
-14 5 -18 8 -5 8 -8 -1 -14 -8 -5 -6 -9 6 -14 10 -4 16 -4 12 -1 -3 3 4 17 17
29 31 31 124 32 142 1 6 -11 9 -23 7 -27 -3 -5 0 -8 5 -8 14 0 14 23 0 37 -8
8 -8 13 0 17 6 4 11 3 11 -1 0 -5 27 -8 60 -7 33 1 60 -2 60 -6 0 -5 -11 -7
-25 -4 -14 2 -25 0 -25 -6 0 -6 5 -8 10 -5 7 4 9 -3 6 -19 -3 -16 2 -30 12
-38 15 -11 15 -11 6 2 -5 8 -9 21 -8 28 1 6 2 16 3 20 1 11 31 11 31 1 0 -4
-5 -10 -10 -12 -6 -3 -5 -4 2 -3 7 2 12 10 12 19 -1 13 6 16 35 12 20 -2 42
-4 49 -4 7 -1 11 -5 8 -9 -2 -4 0 -14 5 -22 8 -12 9 -11 7 5 -3 17 2 20 27 17
17 -1 40 -3 53 -3 24 -2 30 -15 10 -22 -7 -2 -10 -8 -5 -12 4 -5 13 -1 20 9
13 18 46 19 60 1 4 -6 11 -4 17 5 8 13 10 12 10 -2 0 -10 5 -18 11 -18 5 0 7
-6 3 -12 -5 -10 -3 -10 7 0 12 11 12 14 -1 23 -11 7 -7 8 14 5 16 -3 34 -10
40 -16 15 -15 -7 -13 -24 3 -12 10 -12 9 -1 -6 8 -9 21 -16 30 -15 9 2 15 -3
13 -9 -1 -7 2 -13 8 -13 13 0 13 17 0 25 -5 3 -10 11 -10 17 0 7 4 7 13 -1 8
-6 18 -7 22 -3 5 4 5 1 1 -5 -11 -19 5 -15 20 5 11 14 15 14 22 4 8 -11 10
-11 15 2 4 9 1 15 -6 13 -7 -1 -11 4 -9 11 1 6 -3 12 -8 12 -7 0 -8 6 -2 16 5
9 7 26 4 37 -3 13 -1 18 6 13 6 -3 14 -2 17 4 4 6 3 10 -2 9 -22 -4 -32 3 -30
21 1 11 6 20 11 20 5 0 6 3 3 7 -4 3 1 16 10 27 16 18 16 19 1 8 -15 -12 -17
-11 -15 7 2 24 1 24 30 11 22 -10 22 -10 0 6 -22 16 -34 52 -13 39 6 -4 8 6 6
24 -4 39 46 117 57 88 3 -6 6 -2 6 11 1 13 7 22 17 22 8 0 13 -4 10 -9 -3 -5
7 -17 22 -26 15 -10 22 -12 15 -5 -10 11 -9 16 5 27 15 12 14 13 -6 3 -13 -7
-26 -9 -30 -6 -3 3 -2 6 3 6 4 0 2 6 -4 14 -9 11 -9 16 1 22 20 13 32 11 40
-6 6 -11 7 -10 5 5 -2 11 -9 19 -15 17 -7 -1 -12 1 -12 4 0 16 74 154 83 154
6 0 7 3 4 6 -7 7 22 64 38 76 6 4 7 8 3 8 -4 0 1 23 12 50 11 28 20 60 20 70
0 11 4 20 8 20 5 0 8 9 7 20 -3 42 11 105 23 103 7 -2 12 2 12 8 0 6 -6 9 -14
6 -13 -5 -15 7 -20 85 0 14 -4 24 -7 22 -4 -2 -12 10 -19 26 -43 104 -186 173
-375 181 -22 1 -53 10 -70 19 -69 40 -131 52 -227 45 -50 -3 -95 -8 -99 -10
-8 -6 -102 -16 -177 -20 -35 -1 -51 1 -49 9 2 6 13 10 23 8 15 -2 16 -1 5 7
-14 9 -54 -7 -46 -19 2 -3 -4 -6 -14 -6 -10 0 -18 6 -18 13 0 7 4 10 9 7 4 -3
11 2 14 10 3 9 10 13 15 10 5 -3 9 2 9 10 0 9 4 16 9 16 5 0 12 9 16 19 4 13
12 18 22 14 12 -5 14 -3 7 8 -12 20 -14 38 -3 45 5 3 6 10 3 16 -5 8 -1 9 11
4 15 -5 16 -4 6 8 -7 8 -10 20 -6 26 3 5 2 10 -3 10 -5 0 -9 6 -9 13 0 6 -2
19 -4 27 -4 14 -8 21 -37 55 -7 8 -10 20 -7 25 4 6 -1 7 -12 3 -15 -6 -16 -4
-5 9 10 13 9 15 -13 10 -15 -2 -25 0 -25 7 0 6 -7 11 -15 11 -17 0 -51 47 -41
57 3 3 6 1 6 -5 0 -6 11 -9 25 -6 16 3 24 0 23 -7 -2 -6 4 -14 12 -16 10 -3
11 -2 3 4 -14 10 -5 27 20 36 9 3 17 13 17 22 0 8 4 15 9 15 14 0 5 38 -16 69
-10 14 -17 29 -16 32 1 4 -5 6 -14 5 -9 0 -36 23 -60 52 -23 29 -43 48 -43 43z
m-380 -775 c0 -8 3 -8 8 0 9 13 72 14 72 1 0 -5 6 -4 13 2 8 6 16 9 19 6 2 -3
24 -7 49 -11 24 -3 53 -7 64 -9 11 -1 25 -3 30 -4 6 0 11 -32 12 -71 l2 -70
-72 -1 c-77 -1 -94 -2 -202 -13 -131 -12 -211 -45 -138 -55 l28 -4 -25 -7
c-21 -5 -32 1 -67 38 -23 25 -40 48 -38 52 3 5 -1 10 -9 13 -24 9 -6 97 20 97
8 0 14 5 14 10 0 6 3 9 8 8 4 -1 20 4 37 11 16 7 37 10 46 8 9 -3 22 -1 29 3
19 12 100 8 100 -4z m699 0 c9 -6 12 -5 8 1 -4 6 18 10 58 10 52 0 65 -3 66
-16 1 -14 2 -14 6 1 2 9 13 16 23 15 10 -1 17 -4 15 -7 -2 -4 14 -6 35 -6 45
0 49 -3 55 -34 2 -12 7 -25 10 -29 4 -3 4 6 1 21 -3 20 -1 25 10 21 8 -3 11
-10 7 -16 -4 -6 0 -8 9 -4 38 14 44 -82 7 -114 -12 -10 -18 -19 -14 -19 5 0
-4 -13 -20 -30 -16 -16 -38 -30 -49 -29 -12 0 -15 3 -8 6 17 7 15 30 -4 37 -9
3 -27 6 -40 6 -13 0 -24 3 -24 8 0 4 -15 7 -32 7 -18 1 -76 5 -128 9 -52 5
-105 8 -118 7 -13 0 -20 3 -17 9 4 7 -3 7 -20 0 -38 -14 -52 -12 -29 5 10 8
14 15 8 15 -5 0 -11 19 -13 42 -1 23 -4 45 -7 49 -12 19 53 33 75 16 10 -8 12
-8 8 -1 -10 16 18 25 33 11 10 -9 11 -9 5 2 -6 10 -2 12 13 7 11 -4 23 -3 26
3 7 11 25 9 45 -3z m-1096 -42 c-9 -24 -9 -104 0 -104 6 0 7 -3 4 -6 -4 -4 8
-25 26 -47 22 -29 27 -39 14 -34 -11 4 -16 3 -12 -3 3 -6 12 -10 19 -10 8 0
19 -6 25 -14 9 -11 2 -19 -35 -41 -40 -23 -167 -138 -163 -147 0 -2 -7 -20
-17 -41 -15 -30 -16 -40 -5 -46 10 -6 9 -11 -3 -23 -8 -9 -13 -18 -11 -22 3
-3 -2 -1 -10 6 -19 18 -75 130 -69 140 3 4 0 8 -7 8 -7 0 -9 3 -6 7 4 3 2 12
-3 18 -6 7 -11 31 -13 54 -1 22 -5 41 -9 41 -11 0 -5 23 7 32 6 5 5 8 -2 8 -7
0 -13 5 -13 11 0 5 4 7 10 4 6 -3 7 1 4 10 -10 26 25 102 62 135 38 33 101 63
115 54 5 -3 9 0 9 6 0 6 3 9 8 7 4 -3 15 -2 25 2 28 10 55 8 50 -5z m1597 6
c6 9 10 10 10 3 0 -7 10 -10 25 -7 14 2 25 0 25 -6 0 -5 3 -9 8 -8 12 4 72
-24 72 -34 0 -5 -4 -6 -10 -3 -5 3 -10 1 -10 -4 0 -14 13 -14 27 0 13 13 59
-39 81 -91 17 -41 19 -173 3 -178 -6 -2 -9 -7 -6 -12 4 -7 -5 -34 -48 -133 -7
-15 -17 -25 -23 -23 -7 3 -10 -3 -7 -13 2 -10 -2 -23 -10 -30 -13 -10 -17 -8
-23 11 -4 13 -8 35 -9 49 -5 53 -110 175 -188 217 l-36 19 39 54 c22 30 40 60
40 67 0 6 8 12 18 12 13 0 14 2 4 9 -15 9 -13 39 3 57 14 16 25 7 19 -14 -5
-14 -4 -14 4 -2 16 22 -5 45 -26 28 -13 -11 -15 -10 -9 5 3 9 2 17 -4 17 -6 0
-7 5 -3 11 4 8 9 7 15 -2 8 -12 11 -11 19 1z m-570 -156 c0 -8 -19 -13 -24 -6
-3 5 1 9 9 9 8 0 15 -2 15 -3z m90 -10 c0 -2 -11 -3 -24 -2 -14 1 -23 5 -20 9
4 7 44 0 44 -7z m-647 -1 c-13 -2 -33 -2 -45 0 -13 2 -3 4 22 4 25 0 35 -2 23
-4z m-148 -13 c-3 -5 -14 -10 -23 -9 -14 0 -13 2 3 9 27 11 27 11 20 0z m63 3
c-10 -2 -26 -2 -35 0 -10 3 -2 5 17 5 19 0 27 -2 18 -5z m825 0 c-7 -2 -19 -2
-25 0 -7 3 -2 5 12 5 14 0 19 -2 13 -5z m64 -9 c-3 -3 -12 -4 -19 -1 -8 3 -5
6 6 6 11 1 17 -2 13 -5z m-1192 -110 c-28 -15 -70 -42 -95 -62 l-45 -35 35 35
c40 39 117 88 140 88 8 0 -8 -12 -35 -26z m1416 -1 c13 -17 13 -17 -6 -3 -11
8 -22 16 -24 17 -2 2 0 3 6 3 6 0 17 -8 24 -17z m-571 -514 c-23 -19 -23 -19
-2 -9 28 14 45 4 38 -23 -4 -15 -2 -17 7 -8 9 9 9 16 -1 31 -7 11 -9 20 -4 20
4 0 13 -9 20 -20 13 -21 32 -27 32 -9 0 5 -6 7 -12 3 -10 -5 -10 -4 -1 6 24
26 73 17 73 -12 0 -6 -6 -5 -15 2 -18 15 -40 3 -26 -14 6 -7 8 -16 4 -19 -3
-4 -1 -7 5 -7 15 0 15 13 0 28 -17 17 3 14 27 -4 12 -9 16 -18 10 -22 -6 -4
-10 -11 -10 -17 0 -5 -21 -29 -46 -53 l-47 -42 -16 24 c-16 25 -7 44 16 30 7
-4 8 -3 4 5 -4 6 -18 9 -31 7 -26 -5 -44 9 -23 17 10 3 10 8 -1 18 -9 9 -11 9
-7 2 4 -8 1 -13 -8 -13 -13 0 -15 27 -7 82 1 5 17 12 41 17 3 0 -6 -9 -20 -20z
m-327 -31 c-8 -15 -23 -8 -24 10 0 11 -2 12 -6 4 -7 -19 26 -52 45 -45 9 4 13
2 8 -5 -3 -6 -2 -13 3 -16 5 -4 8 2 6 11 -1 10 -10 17 -19 17 -9 -1 -16 2 -16
7 0 14 26 10 40 -6 7 -8 16 -12 21 -9 18 11 8 -8 -13 -27 -26 -21 -42 -25 -32
-6 4 7 2 7 -7 -2 -11 -10 -11 -15 -2 -18 9 -3 10 -10 3 -24 -13 -23 -30 -25
-30 -3 0 9 5 12 12 8 7 -4 8 -3 4 5 -6 8 -12 9 -20 2 -9 -8 -19 -4 -34 14 -12
14 -27 25 -34 25 -7 0 -1 11 12 24 14 13 28 22 31 20 4 -2 9 10 13 26 5 29 6
30 24 13 10 -10 17 -21 15 -25z m-422 -14 c1 -8 3 -18 4 -24 1 -5 3 -15 4 -20
1 -7 7 -7 20 0 28 14 51 2 47 -23 -3 -12 -5 -25 -5 -28 -1 -3 -17 -4 -37 -2
-35 4 -36 3 -30 -22 5 -18 3 -24 -4 -20 -5 3 -10 15 -10 26 0 23 -4 23 -35 3
-17 -11 -29 -13 -41 -6 -22 12 -27 42 -8 42 9 0 13 4 10 8 -3 5 1 9 9 9 19 0
19 -6 -2 -29 -16 -18 -16 -18 0 -12 9 3 17 10 17 16 0 5 4 7 8 4 11 -6 9 25
-2 42 -10 17 -1 26 19 18 12 -4 13 -10 6 -24 -6 -12 -6 -23 1 -33 8 -12 9 -11
5 2 -3 9 2 27 10 40 9 12 11 19 5 15 -7 -4 -15 -1 -18 8 -3 9 -10 13 -15 10
-5 -3 -9 -1 -9 4 0 15 50 11 51 -4z m1242 1 c-3 -9 -8 -13 -11 -11 -3 3 -11 1
-18 -5 -15 -12 -10 -29 9 -29 7 0 6 4 -3 10 -8 5 -12 10 -7 10 4 0 9 -1 10 -2
2 -2 11 3 20 10 13 11 16 10 22 -7 3 -11 15 -23 26 -26 10 -4 17 -10 14 -15
-3 -5 -1 -11 5 -15 34 -21 -16 -60 -57 -44 -25 9 -29 -1 -13 -32 10 -17 8 -18
-16 -8 -15 5 -35 7 -43 4 -9 -3 -3 6 12 20 l28 25 -25 1 c-45 2 -48 4 -62 24
-17 26 -9 37 44 64 23 12 42 26 42 31 0 6 7 10 15 10 9 0 12 -6 8 -15z m-1205
-160 c3 -3 -1 -5 -9 -6 -8 0 -25 -2 -38 -5 -20 -4 -22 -2 -12 10 11 13 46 14
59 1z m662 -104 c0 -14 -18 -23 -30 -16 -6 4 -8 11 -5 16 8 12 35 12 35 0z"/>
<path d="M2268 3253 c7 -3 16 -2 19 1 4 3 -2 6 -13 5 -11 0 -14 -3 -6 -6z"/>
<path d="M2374 3249 c1 -7 14 -13 28 -13 15 -1 24 2 21 7 -3 5 -14 7 -24 4
-10 -3 -20 -1 -23 4 -2 5 -3 4 -2 -2z"/>
<path d="M2196 3239 c3 -5 9 -7 14 -4 4 3 11 0 13 -5 3 -6 4 -5 3 1 -1 7 -10
13 -19 15 -9 1 -15 -2 -11 -7z"/>
<path d="M2295 3240 c-4 -7 3 -9 20 -6 20 4 25 2 21 -10 -3 -7 -1 -14 5 -14 6
0 9 7 7 17 -3 18 -44 28 -53 13z"/>
<path d="M2487 3226 c-4 -10 -3 -15 3 -11 6 3 10 1 10 -6 0 -7 3 -10 6 -6 3 3
2 13 -4 22 -8 16 -9 16 -15 1z"/>
<path d="M2535 3230 c-3 -5 9 -16 27 -25 29 -14 30 -14 14 0 -11 8 -24 15 -29
15 -4 0 -5 5 -2 10 3 6 4 10 1 10 -3 0 -7 -4 -11 -10z"/>
<path d="M2181 3214 c0 -11 3 -14 6 -6 3 7 2 16 -1 19 -3 4 -6 -2 -5 -13z"/>
<path d="M2252 3221 c-11 -7 -10 -9 3 -14 11 -5 14 -3 9 5 -5 8 -2 9 10 5 10
-4 15 -3 11 3 -7 12 -16 12 -33 1z"/>
<path d="M2399 3228 c-5 -14 -4 -58 1 -58 4 0 7 14 6 30 -1 26 -3 36 -7 28z"/>
<path d="M2440 3215 c0 -8 2 -15 4 -15 2 0 6 7 10 15 3 8 1 15 -4 15 -6 0 -10
-7 -10 -15z"/>
<path d="M2571 3227 c2 -1 13 -9 24 -17 19 -14 19 -14 6 3 -7 9 -18 17 -24 17
-6 0 -8 -1 -6 -3z"/>
<path d="M2115 3200 c3 -6 1 -10 -6 -10 -7 0 -10 -3 -6 -6 3 -3 13 -2 22 4 16
8 16 9 1 15 -10 4 -15 3 -11 -3z"/>
<path d="M2156 3195 c-9 -26 -7 -32 5 -12 6 10 9 21 6 23 -2 3 -7 -2 -11 -11z"/>
<path d="M2359 3193 c-13 -16 -12 -17 4 -4 16 13 21 21 13 21 -2 0 -10 -8 -17
-17z"/>
<path d="M2224 3184 c-18 -14 -18 -15 4 -4 12 6 22 13 22 15 0 8 -5 6 -26 -11z"/>
<path d="M2296 3187 c3 -10 9 -15 12 -12 3 3 0 11 -7 18 -10 9 -11 8 -5 -6z"/>
<path d="M2175 3181 c-3 -5 -2 -12 3 -15 5 -3 9 1 9 9 0 17 -3 19 -12 6z"/>
<path d="M2095 3160 c-3 -5 -1 -10 4 -10 6 0 11 5 11 10 0 6 -2 10 -4 10 -3 0
-8 -4 -11 -10z"/>
<path d="M2136 3133 c-6 -14 -5 -15 5 -6 7 7 10 15 7 18 -3 3 -9 -2 -12 -12z"/>
<path d="M2126 3102 c-3 -5 1 -9 9 -9 8 0 15 4 15 9 0 4 -4 8 -9 8 -6 0 -12
-4 -15 -8z"/>
<path d="M3074 3235 c3 -23 12 -26 13 -5 1 11 -2 20 -7 20 -4 0 -7 -7 -6 -15z"/>
<path d="M3155 3240 c3 -5 8 -10 11 -10 2 0 4 5 4 10 0 6 -5 10 -11 10 -5 0
-7 -4 -4 -10z"/>
<path d="M3196 3233 c-6 -14 -5 -15 5 -6 7 7 10 15 7 18 -3 3 -9 -2 -12 -12z"/>
<path d="M3261 3247 c2 -1 13 -9 24 -17 19 -14 19 -14 6 3 -7 9 -18 17 -24 17
-6 0 -8 -1 -6 -3z"/>
<path d="M2860 3230 c-9 -6 -11 -10 -3 -10 7 0 10 -7 6 -17 -3 -10 -3 -15 1
-12 6 6 18 49 13 49 -1 0 -9 -5 -17 -10z"/>
<path d="M2933 3226 c-9 -11 -9 -15 0 -19 7 -3 14 3 14 14 2 22 2 22 -14 5z"/>
<path d="M3225 3218 c-11 -12 -14 -18 -7 -14 7 4 21 2 30 -5 14 -11 15 -11 5
0 -6 7 -9 20 -6 27 7 19 2 17 -22 -8z"/>
<path d="M2893 3216 c3 -8 2 -17 -4 -20 -5 -2 -4 -3 2 -2 15 3 21 36 7 36 -6
0 -8 -6 -5 -14z"/>
<path d="M2997 3211 c-4 -17 -3 -21 5 -13 5 5 8 16 6 23 -3 8 -7 3 -11 -10z"/>
<path d="M3124 3222 c4 -3 14 -7 22 -8 9 -1 13 0 10 4 -4 3 -14 7 -22 8 -9 1
-13 0 -10 -4z"/>
<path d="M3029 3203 c-13 -16 -12 -17 3 -5 9 8 23 10 29 6 8 -4 9 -3 5 4 -10
17 -21 15 -37 -5z"/>
<path d="M3290 3200 c0 -5 5 -10 11 -10 5 0 7 5 4 10 -3 6 -8 10 -11 10 -2 0
-4 -4 -4 -10z"/>
<path d="M2909 3183 c-13 -16 -12 -17 4 -4 16 13 21 21 13 21 -2 0 -10 -8 -17
-17z"/>
<path d="M2950 3179 c0 -5 5 -7 10 -4 6 3 10 8 10 11 0 2 -4 4 -10 4 -5 0 -10
-5 -10 -11z"/>
<path d="M3348 3183 c7 -3 16 -2 19 1 4 3 -2 6 -13 5 -11 0 -14 -3 -6 -6z"/>
<path d="M2868 3173 c7 -3 16 -2 19 1 4 3 -2 6 -13 5 -11 0 -14 -3 -6 -6z"/>
<path d="M2975 3171 c-3 -5 -2 -12 3 -15 5 -3 9 1 9 9 0 17 -3 19 -12 6z"/>
<path d="M2915 3161 c-3 -5 -2 -12 3 -15 5 -3 9 1 9 9 0 17 -3 19 -12 6z"/>
<path d="M1905 3200 c-3 -6 1 -7 9 -4 18 7 21 14 7 14 -6 0 -13 -4 -16 -10z"/>
<path d="M1915 3180 c-3 -5 -3 -10 2 -10 4 0 1 -5 -7 -11 -10 -7 -11 -9 -2 -7
8 2 13 7 12 12 -1 5 4 13 12 17 9 6 9 9 1 9 -6 0 -15 -4 -18 -10z"/>
<path d="M1871 3167 c-8 -10 -7 -14 2 -14 8 0 14 6 14 14 0 7 -1 13 -2 13 -2
0 -8 -6 -14 -13z"/>
<path d="M1825 3119 c-3 -4 2 -6 10 -5 21 3 28 13 10 13 -9 0 -18 -4 -20 -8z"/>
<path d="M1790 3078 c0 -4 4 -8 9 -8 6 0 12 4 15 8 3 5 -1 9 -9 9 -8 0 -15 -4
-15 -9z"/>
<path d="M1835 3080 c-3 -5 -1 -10 4 -10 6 0 11 5 11 10 0 6 -2 10 -4 10 -3 0
-8 -4 -11 -10z"/>
<path d="M1710 2998 c0 -4 4 -8 9 -8 6 0 12 4 15 8 3 5 -1 9 -9 9 -8 0 -15 -4
-15 -9z"/>
<path d="M1719 2975 c-1 -3 -2 -8 -3 -12 -1 -5 -5 -15 -10 -23 -7 -12 -6 -13
4 -3 13 12 23 43 14 43 -2 0 -5 -2 -5 -5z"/>
<path d="M1715 2870 c10 -11 20 -20 23 -20 3 0 -3 9 -13 20 -10 11 -20 20 -23
20 -3 0 3 -9 13 -20z"/>
<path d="M1734 2820 c0 -13 4 -16 10 -10 7 7 7 13 0 20 -6 6 -10 3 -10 -10z"/>
<path d="M1747 2755 c3 -8 9 -12 14 -9 12 7 11 11 -5 17 -10 4 -13 1 -9 -8z"/>
<path d="M1775 2731 c-3 -5 -2 -12 3 -15 5 -3 9 1 9 9 0 17 -3 19 -12 6z"/>
<path d="M3590 3190 c0 -5 5 -10 10 -10 6 0 10 5 10 10 0 6 -4 10 -10 10 -5 0
-10 -4 -10 -10z"/>
<path d="M3575 3159 c-4 -6 -5 -12 -2 -15 2 -3 7 2 10 11 7 17 1 20 -8 4z"/>
<path d="M3530 3140 c0 -5 5 -10 11 -10 5 0 7 5 4 10 -3 6 -8 10 -11 10 -2 0
-4 -4 -4 -10z"/>
<path d="M3593 3131 c0 -11 5 -18 9 -15 4 3 5 11 1 19 -7 21 -12 19 -10 -4z"/>
<path d="M3650 3145 c0 -5 5 -17 10 -25 5 -8 10 -10 10 -5 0 6 -5 17 -10 25
-5 8 -10 11 -10 5z"/>
<path d="M3556 3122 c-3 -5 1 -9 9 -9 8 0 12 4 9 9 -3 4 -7 8 -9 8 -2 0 -6 -4
-9 -8z"/>
<path d="M3566 3058 c3 -5 10 -6 15 -3 13 9 11 12 -6 12 -8 0 -12 -4 -9 -9z"/>
<path d="M3495 3040 c-5 -9 -4 -11 3 -6 16 10 15 -6 0 -24 -11 -12 -10 -12 3
-2 9 6 18 10 21 7 3 -3 11 3 19 12 11 15 11 16 -1 6 -10 -10 -16 -9 -25 4 -10
13 -14 13 -20 3z"/>
<path d="M3519 2995 c-1 -3 -2 -11 -3 -17 -1 -7 -8 -12 -15 -10 -7 1 -9 -2 -6
-9 9 -13 28 3 31 26 2 13 -4 22 -7 10z"/>
<path d="M3530 2939 c0 -5 5 -7 10 -4 6 3 10 8 10 11 0 2 -4 4 -10 4 -5 0 -10
-5 -10 -11z"/>
<path d="M2890 2379 c0 -5 -4 -8 -9 -4 -5 3 -13 0 -17 -7 -4 -7 -4 -10 1 -6 4
4 15 2 24 -4 9 -7 13 -8 9 -4 -4 5 -3 15 3 23 9 9 8 13 0 13 -6 0 -11 -5 -11
-11z"/>
<path d="M2936 2361 c-3 -5 1 -14 10 -21 12 -10 17 -11 27 -1 7 7 8 12 2 11
-21 -5 -36 0 -30 10 3 6 4 10 1 10 -3 0 -7 -4 -10 -9z"/>
<path d="M2955 2300 c3 -5 8 -10 11 -10 2 0 4 5 4 10 0 6 -5 10 -11 10 -5 0
-7 -4 -4 -10z"/>
<path d="M2935 2269 c-4 -6 -5 -12 -2 -15 2 -3 7 2 10 11 7 17 1 20 -8 4z"/>
<path d="M2483 2342 c-9 -6 -7 -11 7 -20 12 -7 20 -8 20 -2 0 5 -5 10 -11 10
-5 0 -7 5 -4 10 7 12 4 12 -12 2z"/>
<path d="M2520 2330 c9 -17 30 -20 30 -4 0 3 -4 2 -10 -1 -5 -3 -10 1 -10 9 0
9 -5 16 -10 16 -7 0 -7 -7 0 -20z"/>
<path d="M2155 2300 c-13 -6 -15 -9 -5 -9 8 0 22 4 30 9 18 12 2 12 -25 0z"/>
<path d="M3280 2309 l-25 -20 34 16 c31 16 33 16 28 0 -4 -9 -3 -14 2 -10 5 3
11 0 13 -7 3 -7 7 -5 11 6 4 9 3 15 -2 12 -5 -3 -11 1 -15 9 -7 20 -16 19 -46
-6z"/>
<path d="M3384 2315 c11 -8 24 -15 30 -15 5 0 1 7 -10 15 -10 8 -23 14 -29 14
-5 0 -1 -6 9 -14z"/>
<path d="M3356 2295 c-9 -26 -7 -32 5 -12 6 10 9 21 6 23 -2 3 -7 -2 -11 -11z"/>
<path d="M3280 2278 c-12 -8 -12 -9 2 -5 9 3 19 1 22 -6 3 -9 5 -9 5 0 1 18
-13 23 -29 11z"/>
<path d="M3415 2280 c6 -10 4 -12 -8 -7 -21 8 -22 3 -3 -12 10 -9 15 -8 19 3
4 9 1 18 -5 22 -7 5 -8 2 -3 -6z"/>
<path d="M1233 4014 c-7 -18 17 -38 31 -24 11 11 1 40 -14 40 -6 0 -13 -7 -17
-16z"/>
<path d="M4193 4014 c-7 -20 8 -36 25 -25 14 8 6 41 -9 41 -5 0 -12 -7 -16
-16z"/>
<path d="M1233 3954 c-6 -17 15 -37 29 -28 13 9 9 32 -7 38 -9 3 -18 -1 -22
-10z"/>
<path d="M4203 3963 c-7 -3 -13 -11 -13 -18 0 -16 27 -28 35 -15 9 14 -8 38
-22 33z"/>
<path d="M4406 3948 c-9 -12 -16 -26 -16 -30 0 -17 41 -48 65 -48 20 0 25 6
31 37 5 29 3 39 -11 50 -27 19 -52 16 -69 -9z"/>
<path d="M1223 3903 c-18 -7 -16 -30 4 -37 21 -8 38 8 30 28 -7 16 -13 18 -34
9z"/>
<path d="M4204 3895 c-7 -18 3 -35 22 -35 20 0 30 30 13 41 -20 12 -29 11 -35
-6z"/>
<path d="M1022 3773 c2 -10 10 -18 18 -18 8 0 16 8 18 18 2 12 -3 17 -18 17
-15 0 -20 -5 -18 -17z"/>
<path d="M1192 3733 c-154 -179 -284 -456 -328 -703 -3 -14 -7 -32 -9 -40 -5
-18 -17 -131 -19 -180 -1 -33 -3 -35 -32 -32 -57 6 -84 -48 -44 -88 23 -23 41
-25 58 -8 7 7 12 8 12 3 8 -193 71 -459 149 -625 59 -127 155 -275 236 -365
l36 -40 -39 56 c-183 256 -294 533 -329 819 -10 78 -10 314 -1 390 17 135 66
330 105 420 78 177 143 293 218 391 26 32 44 59 42 59 -3 0 -27 -26 -55 -57z"/>
<path d="M2870 3786 c0 -2 7 -7 16 -10 8 -3 12 -2 9 4 -6 10 -25 14 -25 6z"/>
<path d="M4402 3773 c2 -10 10 -18 18 -18 8 0 16 8 18 18 2 12 -3 17 -18 17
-15 0 -20 -5 -18 -17z"/>
<path d="M2848 3773 c6 -2 9 -10 6 -15 -4 -7 -2 -8 5 -4 13 9 5 26 -12 25 -9
0 -8 -2 1 -6z"/>
<path d="M4247 3748 c56 -61 187 -301 236 -433 115 -312 135 -657 57 -982 -35
-144 -124 -358 -195 -469 -19 -30 -35 -57 -35 -59 0 -3 -23 -36 -51 -73 -45
-59 -22 -41 37 30 69 82 166 252 218 380 33 84 80 249 91 323 3 22 8 54 11 70
3 17 7 55 9 85 1 30 3 58 4 61 1 3 15 3 33 1 35 -5 58 16 58 54 0 29 -37 55
-67 48 -15 -4 -23 -2 -24 7 -1 8 -3 24 -4 37 -1 12 -5 53 -9 90 -23 223 -123
500 -248 685 -58 87 -121 166 -132 166 -5 1 0 -9 11 -21z"/>
<path d="M2893 3743 c0 -8 6 -9 19 -2 10 5 18 11 18 12 0 2 -8 3 -18 3 -10 0
-19 -6 -19 -13z"/>
<path d="M944 3715 c-4 -9 -2 -21 4 -27 15 -15 44 -1 40 19 -4 23 -36 29 -44
8z"/>
<path d="M4474 3715 c-7 -18 3 -35 21 -35 15 0 28 27 19 41 -8 14 -34 11 -40
-6z"/>
<path d="M857 3683 c-13 -12 -7 -44 9 -50 23 -9 48 25 33 44 -12 14 -32 17
-42 6z"/>
<path d="M4560 3675 c-10 -12 -10 -18 0 -30 7 -8 18 -15 26 -15 19 0 29 41 13
51 -19 12 -25 11 -39 -6z"/>
<path d="M763 3653 c-20 -7 -15 -41 6 -53 28 -14 55 13 41 41 -11 19 -23 22
-47 12z"/>
<path d="M4650 3641 c-13 -25 11 -51 40 -44 24 6 27 48 4 57 -25 10 -33 7 -44
-13z"/>
<path d="M666 3614 c-9 -8 -16 -18 -16 -22 1 -39 63 -42 68 -3 6 37 -26 52
-52 25z"/>
<path d="M4752 3618 c-15 -15 -16 -45 -1 -53 16 -11 59 4 59 19 0 15 -26 46
-39 46 -4 0 -12 -5 -19 -12z"/>
<path d="M989 3571 c-37 -37 -128 -87 -204 -110 -199 -63 -314 -180 -302 -307
7 -70 37 -119 138 -224 89 -93 91 -90 7 13 -138 169 -150 273 -43 372 46 42
58 49 245 138 79 37 128 68 158 98 23 24 42 47 42 51 0 11 -1 11 -41 -31z"/>
<path d="M4483 3547 c45 -43 84 -67 175 -108 149 -67 215 -110 255 -168 26
-38 32 -55 31 -101 0 -36 -7 -69 -22 -97 -23 -44 -120 -176 -134 -181 -5 -2
-13 -13 -19 -25 -5 -12 28 19 76 68 104 110 130 158 129 240 -1 128 -76 200
-299 286 -117 45 -134 54 -205 107 -40 30 -38 28 13 -21z"/>
<path d="M576 3574 c-19 -19 -20 -36 -4 -52 16 -16 43 -15 58 3 10 12 9 20 -4
40 -19 29 -29 31 -50 9z"/>
<path d="M4836 3568 c-19 -26 -9 -58 18 -58 35 0 49 15 42 43 -8 33 -42 41
-60 15z"/>
<path d="M490 3495 c-16 -30 0 -55 36 -55 29 0 45 27 33 58 -12 31 -52 29 -69
-3z"/>
<path d="M970 3505 c0 -9 6 -12 15 -9 8 4 15 10 15 15 0 5 -7 9 -15 9 -8 0
-15 -7 -15 -15z"/>
<path d="M4462 3508 c6 -18 28 -21 28 -4 0 9 -7 16 -16 16 -9 0 -14 -5 -12
-12z"/>
<path d="M4905 3503 c-19 -43 -5 -67 36 -61 35 5 47 33 25 57 -23 26 -51 27
-61 4z"/>
<path d="M2928 3493 c6 -2 9 -10 6 -15 -4 -7 -2 -8 5 -4 13 9 5 26 -12 25 -9
0 -8 -2 1 -6z"/>
<path d="M2990 3479 c0 -5 5 -7 10 -4 6 3 10 8 10 11 0 2 -4 4 -10 4 -5 0 -10
-5 -10 -11z"/>
<path d="M935 3460 c-4 -6 -3 -16 3 -22 6 -6 12 -6 17 2 4 6 3 16 -3 22 -6 6
-12 6 -17 -2z"/>
<path d="M4505 3460 c-4 -6 -3 -16 3 -22 6 -6 12 -6 17 2 4 6 3 16 -3 22 -6 6
-12 6 -17 -2z"/>
<path d="M2933 3435 c-3 -9 -3 -18 -1 -21 3 -3 8 4 11 16 6 23 -1 27 -10 5z"/>
<path d="M2897 3421 c-2 -11 3 -25 14 -35 11 -9 19 -11 19 -6 0 6 -6 13 -14
16 -8 3 -12 13 -9 25 3 10 3 19 0 19 -2 0 -7 -8 -10 -19z"/>
<path d="M874 3419 c-7 -12 15 -31 28 -23 4 3 8 12 8 20 0 17 -26 19 -36 3z"/>
<path d="M4550 3415 c0 -8 9 -15 20 -15 13 0 18 5 14 15 -4 8 -12 15 -20 15
-8 0 -14 -7 -14 -15z"/>
<path d="M813 3395 c-7 -20 2 -29 21 -22 9 4 13 13 10 22 -8 19 -23 19 -31 0z"/>
<path d="M4617 3404 c-14 -15 -6 -34 14 -34 14 0 19 5 17 17 -3 18 -20 27 -31
17z"/>
<path d="M744 3379 c-10 -17 23 -46 38 -31 8 8 8 15 -2 27 -15 18 -26 19 -36
4z"/>
<path d="M4682 3382 c-15 -10 -5 -42 13 -42 15 0 24 19 17 38 -5 14 -12 15
-30 4z"/>
<path d="M684 3345 c-4 -9 -2 -21 4 -27 15 -15 44 -1 40 19 -4 23 -36 29 -44
8z"/>
<path d="M4734 3345 c-4 -9 -2 -21 3 -26 14 -14 45 1 41 20 -4 22 -37 26 -44
6z"/>
<path d="M632 3308 c-15 -18 1 -41 24 -36 23 4 26 41 3 46 -9 1 -21 -3 -27
-10z"/>
<path d="M4784 3305 c-8 -19 3 -35 25 -35 25 0 32 10 20 31 -12 23 -37 25 -45
4z"/>
<path d="M612 3195 c-16 -35 -15 -88 2 -128 7 -18 39 -71 70 -117 31 -46 56
-89 56 -96 0 -7 4 -16 10 -19 17 -11 -1 57 -29 110 -15 28 -43 74 -62 104 -28
45 -34 63 -34 112 0 33 0 59 -1 59 0 0 -6 -11 -12 -25z"/>
<path d="M4666 3047 c2 -213 3 -221 15 -182 16 52 15 296 -2 327 -13 25 -14
11 -13 -145z"/>
<path d="M4834 3162 c0 -53 -4 -65 -55 -148 -31 -50 -60 -100 -63 -112 -14
-43 -16 -72 -6 -72 5 0 10 9 10 19 0 11 25 57 56 102 31 45 62 96 70 115 17
41 18 101 1 132 -12 21 -13 17 -13 -36z"/>
<path d="M773 3173 c-12 -46 -6 -282 8 -318 10 -26 12 -5 13 192 1 147 -5 185
-21 126z"/>
<path d="M3915 3069 c-4 -6 -5 -12 -2 -15 2 -3 7 2 10 11 7 17 1 20 -8 4z"/>
<path d="M3930 3040 c0 -5 5 -10 11 -10 5 0 7 5 4 10 -3 6 -8 10 -11 10 -2 0
-4 -4 -4 -10z"/>
<path d="M4851 2838 c-55 -55 -101 -104 -101 -108 0 -3 47 -52 105 -108 l104
-102 91 90 c102 102 93 100 160 27 35 -38 36 -38 55 -19 20 19 20 19 40 1 21
-18 22 -18 88 49 l68 68 -66 63 c-62 60 -66 62 -87 47 -20 -14 -24 -14 -40 1
-18 16 -21 14 -66 -30 -26 -26 -51 -47 -56 -47 -4 0 -47 38 -94 85 -47 47 -89
85 -93 85 -3 0 -52 -46 -108 -102z m192 -29 l76 -81 -42 -40 c-23 -23 -59 -59
-79 -80 l-38 -38 -80 80 -80 81 77 79 c41 44 79 80 83 80 4 0 42 -36 83 -81z
m217 1 c0 -5 -13 -23 -30 -40 -16 -17 -30 -33 -30 -36 0 -3 13 -19 30 -37 35
-37 41 -64 11 -48 -24 13 -71 69 -71 85 0 6 16 29 35 49 34 36 55 47 55 27z
m118 -33 l42 -43 -46 -47 c-50 -51 -78 -54 -42 -5 13 16 27 36 32 43 7 9 0 24
-22 49 -36 41 -38 46 -19 46 7 0 32 -19 55 -43z m-60 -24 l25 -27 -28 -24 -28
-24 -25 26 c-24 24 -25 26 -8 50 21 33 33 33 64 -1z"/>
<path d="M4855 2741 c-3 -5 -1 -12 5 -16 5 -3 10 1 10 9 0 18 -6 21 -15 7z"/>
<path d="M4880 2730 c0 -5 5 -10 10 -10 6 0 10 5 10 10 0 6 -4 10 -10 10 -5 0
-10 -4 -10 -10z"/>
<path d="M4920 2730 c0 -5 5 -10 11 -10 5 0 7 5 4 10 -3 6 -8 10 -11 10 -2 0
-4 -4 -4 -10z"/>
<path d="M4950 2730 c0 -5 5 -10 11 -10 5 0 7 5 4 10 -3 6 -8 10 -11 10 -2 0
-4 -4 -4 -10z"/>
<path d="M405 2845 c-47 -47 -88 -85 -90 -85 -2 0 -26 22 -53 50 -48 49 -49
50 -69 31 -20 -19 -21 -19 -40 -1 -20 18 -22 17 -87 -49 l-66 -67 62 -61 c60
-59 64 -61 88 -48 22 12 27 11 43 -3 16 -15 21 -12 65 31 26 26 51 47 56 47 4
0 48 -40 97 -89 l89 -89 105 105 c58 58 105 107 105 110 0 9 -200 203 -209
203 -5 0 -48 -38 -96 -85z m179 -41 l74 -76 -79 -82 -79 -81 -79 82 -79 82 72
75 c39 41 77 75 84 75 7 1 46 -33 86 -75z m-443 -12 c-5 -10 -19 -26 -30 -36
-28 -25 -27 -37 9 -71 17 -16 30 -32 30 -37 0 -20 -29 -5 -68 35 l-43 44 47
46 c45 45 74 54 55 19z m123 -23 c14 -17 26 -37 26 -44 0 -16 -65 -85 -80 -85
-18 0 -11 19 20 50 17 17 30 34 30 38 0 4 -13 20 -30 35 -35 33 -42 64 -11 48
10 -6 31 -24 45 -42z m-44 -39 c0 -12 -37 -50 -48 -50 -6 0 -20 13 -31 29
l-21 29 27 20 28 21 23 -21 c12 -12 22 -25 22 -28z"/>
<path d="M520 2730 c0 -5 5 -10 11 -10 5 0 7 5 4 10 -3 6 -8 10 -11 10 -2 0
-4 -4 -4 -10z"/>
<path d="M560 2730 c0 -5 5 -10 11 -10 5 0 7 5 4 10 -3 6 -8 10 -11 10 -2 0
-4 -4 -4 -10z"/>
<path d="M590 2724 c0 -8 5 -12 10 -9 6 4 8 11 5 16 -9 14 -15 11 -15 -7z"/>
<path d="M3919 2928 c-5 -18 -6 -38 -1 -34 7 8 12 36 6 36 -2 0 -4 -1 -5 -2z"/>
<path d="M3946 2918 c3 -5 10 -6 15 -3 13 9 11 12 -6 12 -8 0 -12 -4 -9 -9z"/>
<path d="M3895 2829 c-4 -6 -5 -12 -2 -15 2 -3 7 2 10 11 7 17 1 20 -8 4z"/>
<path d="M3894 2738 c-4 -7 -4 -10 1 -6 4 4 15 2 24 -5 14 -11 14 -10 2 6 -16
20 -18 21 -27 5z"/>
<path d="M3896 2698 c3 -5 10 -6 15 -3 13 9 11 12 -6 12 -8 0 -12 -4 -9 -9z"/>
<path d="M3893 2665 c0 -8 4 -12 9 -9 5 3 6 10 3 15 -9 13 -12 11 -12 -6z"/>
<path d="M747 2633 c-4 -3 -7 -14 -7 -23 0 -9 -26 -54 -57 -101 -81 -119 -101
-190 -70 -246 11 -19 12 -14 13 38 1 49 7 68 34 112 62 96 89 153 94 190 5 38
4 42 -7 30z"/>
<path d="M4707 2598 c5 -34 35 -95 93 -185 27 -44 33 -63 34 -112 1 -52 2 -57
13 -38 17 30 16 90 -1 131 -8 19 -39 70 -70 115 -31 45 -56 91 -56 102 0 10
-4 19 -9 19 -5 0 -7 -15 -4 -32z"/>
<path d="M617 2529 c-96 -103 -129 -161 -135 -235 -5 -61 21 -119 77 -172 49
-46 99 -75 208 -116 117 -44 167 -70 223 -114 l45 -36 -45 48 c-42 45 -110 83
-285 161 -121 55 -203 157 -191 241 8 61 33 106 120 218 42 53 74 96 72 96 -2
0 -42 -41 -89 -91z"/>
<path d="M776 2593 c-4 -16 -7 -89 -8 -163 -1 -100 2 -142 13 -162 13 -25 14
-9 14 157 -1 178 -6 227 -19 168z"/>
<path d="M3787 2607 c-3 -8 3 -14 16 -15 12 0 17 2 12 6 -6 4 -13 11 -16 15
-4 4 -9 2 -12 -6z"/>
<path d="M4669 2590 c-5 -101 -3 -338 4 -331 21 21 25 85 17 266 -4 74 -18
118 -21 65z"/>
<path d="M3836 2598 c3 -5 10 -6 15 -3 13 9 11 12 -6 12 -8 0 -12 -4 -9 -9z"/>
<path d="M3880 2600 c-12 -7 -10 -9 7 -7 12 0 19 5 17 9 -6 10 -6 10 -24 -2z"/>
<path d="M4766 2600 c4 -8 16 -23 25 -35 142 -166 174 -240 146 -332 -14 -45
-89 -121 -148 -150 -24 -12 -96 -46 -159 -76 -87 -42 -126 -67 -160 -103 -41
-44 -33 -44 15 -1 28 26 102 63 209 103 205 78 280 155 281 284 0 53 -5 73
-27 110 -24 41 -200 234 -182 200z"/>
<path d="M3829 2557 c6 -8 7 -18 3 -22 -4 -5 -1 -5 6 -1 10 6 10 11 1 22 -6 8
-14 14 -16 14 -3 0 0 -6 6 -13z"/>
<path d="M3802 2538 c-15 -15 -15 -28 0 -28 6 0 8 3 5 7 -4 3 -2 12 4 20 14
16 7 17 -9 1z"/>
<path d="M3745 2500 c3 -5 8 -10 11 -10 2 0 4 5 4 10 0 6 -5 10 -11 10 -5 0
-7 -4 -4 -10z"/>
<path d="M3786 2438 c3 -5 10 -6 15 -3 13 9 11 12 -6 12 -8 0 -12 -4 -9 -9z"/>
<path d="M3756 2422 c-3 -5 1 -9 9 -9 8 0 12 4 9 9 -3 4 -7 8 -9 8 -2 0 -6 -4
-9 -8z"/>
<path d="M3676 2395 c-9 -26 -7 -32 5 -12 6 10 9 21 6 23 -2 3 -7 -2 -11 -11z"/>
<path d="M3697 2376 c-4 -10 -1 -13 8 -9 8 3 12 9 9 14 -7 12 -11 11 -17 -5z"/>
<path d="M3635 2358 c21 -12 23 -12 28 -1 1 3 -9 8 -23 9 -23 4 -24 3 -5 -8z"/>
<path d="M3720 2360 c-9 -6 -10 -10 -3 -10 6 0 15 5 18 10 8 12 4 12 -15 0z"/>
<path d="M3622 2336 c7 -8 15 -12 17 -11 5 6 -10 25 -20 25 -5 0 -4 -6 3 -14z"/>
<path d="M3614 2279 c-4 -7 -3 -9 4 -5 5 3 13 0 15 -6 4 -9 6 -10 6 -1 1 17
-16 25 -25 12z"/>
<path d="M3631 2207 c-13 -21 -12 -21 5 -5 10 10 16 20 13 22 -3 3 -11 -5 -18
-17z"/>
<path d="M625 2180 c-10 -16 20 -44 38 -37 9 3 14 14 13 24 -3 21 -41 30 -51
13z"/>
<path d="M3597 2183 c-13 -12 -7 -23 11 -22 10 0 12 3 4 6 -6 2 -10 9 -6 14 6
10 0 12 -9 2z"/>
<path d="M4780 2181 c0 -21 13 -41 26 -41 15 0 37 34 27 44 -10 9 -53 7 -53
-3z"/>
<path d="M684 2135 c-8 -19 12 -36 33 -28 19 7 12 37 -10 41 -9 2 -20 -4 -23
-13z"/>
<path d="M4734 2135 c-4 -9 -2 -21 4 -27 15 -15 44 -1 40 19 -4 23 -36 29 -44
8z"/>
<path d="M747 2106 c-8 -20 16 -39 30 -25 14 14 6 39 -12 39 -7 0 -15 -6 -18
-14z"/>
<path d="M4677 2106 c-8 -20 16 -39 30 -25 14 14 6 39 -12 39 -7 0 -15 -6 -18
-14z"/>
<path d="M3606 2097 c-16 -12 -16 -13 2 -13 10 0 19 6 19 13 0 7 -1 13 -2 13
-1 0 -9 -6 -19 -13z"/>
<path d="M2531 2083 c-9 -7 -11 -12 -4 -13 6 0 14 4 18 10 3 5 12 7 19 4 8 -3
16 -2 19 3 8 13 -33 10 -52 -4z"/>
<path d="M2606 2087 c3 -10 9 -15 12 -12 3 3 0 11 -7 18 -10 9 -11 8 -5 -6z"/>
<path d="M2756 2087 c3 -10 9 -15 12 -12 3 3 0 11 -7 18 -10 9 -11 8 -5 -6z"/>
<path d="M2863 2093 c-7 -3 -13 -9 -13 -15 0 -6 6 -6 15 2 11 9 18 10 29 1 10
-9 15 -8 19 1 4 13 -26 19 -50 11z"/>
<path d="M812 2073 c2 -10 10 -18 17 -18 8 0 15 8 17 18 1 11 -4 17 -18 17
-13 0 -18 -6 -16 -17z"/>
<path d="M2495 2080 c3 -5 8 -10 11 -10 2 0 4 5 4 10 0 6 -5 10 -11 10 -5 0
-7 -4 -4 -10z"/>
<path d="M2935 2080 c3 -5 11 -10 16 -10 6 0 7 5 4 10 -3 6 -11 10 -16 10 -6
0 -7 -4 -4 -10z"/>
<path d="M3032 2085 c4 -4 0 -13 -9 -20 -13 -9 -13 -14 -3 -20 9 -5 11 -4 6 3
-4 7 -1 12 8 12 19 0 21 16 4 26 -7 4 -10 4 -6 -1z"/>
<path d="M3655 2080 c3 -5 8 -10 11 -10 2 0 4 5 4 10 0 6 -5 10 -11 10 -5 0
-7 -4 -4 -10z"/>
<path d="M4612 2073 c2 -10 10 -18 18 -18 8 0 16 8 18 18 2 12 -3 17 -18 17
-15 0 -20 -5 -18 -17z"/>
<path d="M2420 2070 c-8 -5 -11 -12 -8 -16 4 -3 14 1 23 10 18 17 9 21 -15 6z"/>
<path d="M2462 2060 c0 -14 2 -19 5 -12 2 6 2 18 0 25 -3 6 -5 1 -5 -13z"/>
<path d="M2582 2071 c-11 -7 -10 -9 3 -15 9 -3 14 -10 10 -15 -3 -5 -1 -12 4
-15 8 -5 8 15 1 34 -1 3 -2 8 -1 13 1 9 -1 9 -17 -2z"/>
<path d="M2627 2067 c-6 -15 27 -17 40 -2 5 4 2 5 -4 1 -7 -4 -13 -2 -13 3 0
15 -17 14 -23 -2z"/>
<path d="M3156 2065 c-3 -8 -1 -15 4 -15 6 0 10 7 10 15 0 8 -2 15 -4 15 -2 0
-6 -7 -10 -15z"/>
<path d="M881 2056 c-12 -14 -5 -26 16 -26 15 0 18 26 4 34 -5 3 -14 0 -20 -8z"/>
<path d="M2200 2060 c-9 -6 -10 -10 -3 -10 6 0 15 5 18 10 8 12 4 12 -15 0z"/>
<path d="M2275 2060 c-3 -6 1 -7 9 -4 18 7 21 14 7 14 -6 0 -13 -4 -16 -10z"/>
<path d="M2310 2065 c0 -5 5 -17 10 -25 5 -8 10 -10 10 -5 0 6 -5 17 -10 25
-5 8 -10 11 -10 5z"/>
<path d="M2550 2065 c0 -5 5 -17 10 -25 5 -8 10 -10 10 -5 0 6 -5 17 -10 25
-5 8 -10 11 -10 5z"/>
<path d="M2864 2059 c-5 -8 -3 -9 6 -4 7 4 16 2 22 -6 8 -12 9 -12 6 0 -6 20
-24 25 -34 10z"/>
<path d="M2916 2062 c-3 -4 4 -9 15 -9 23 -2 25 3 4 10 -8 4 -16 3 -19 -1z"/>
<path d="M3260 2059 c0 -5 9 -9 20 -9 11 0 20 2 20 4 0 2 -9 6 -20 9 -11 3
-20 1 -20 -4z"/>
<path d="M2147 2043 c3 -7 9 -13 15 -13 5 0 7 4 4 9 -4 5 0 11 6 14 7 3 3 4
-8 4 -14 -1 -20 -6 -17 -14z"/>
<path d="M4550 2045 c0 -10 7 -15 18 -13 21 4 19 22 -2 26 -10 2 -16 -3 -16
-13z"/>
<path d="M2067 2035 c-16 -11 -16 -13 -2 -19 9 -3 14 -2 10 3 -3 5 1 11 7 14
7 2 11 7 8 10 -3 3 -13 0 -23 -8z"/>
<path d="M2100 2030 c-8 -14 -8 -20 0 -20 6 0 8 -5 4 -12 -4 -6 -3 -8 4 -5 5
4 8 17 4 30 -5 20 -4 21 11 8 15 -12 17 -12 11 3 -8 22 -21 20 -34 -4z"/>
<path d="M2215 2041 c-9 -8 -5 -31 5 -31 5 0 7 6 4 13 -3 8 4 13 16 14 12 1
18 -2 14 -9 -4 -7 -2 -8 5 -4 6 4 9 11 6 16 -5 9 -42 10 -50 1z"/>
<path d="M2296 2037 c3 -10 9 -15 12 -12 3 3 0 11 -7 18 -10 9 -11 8 -5 -6z"/>
<path d="M2435 2041 c-3 -5 -2 -12 3 -15 5 -3 9 1 9 9 0 17 -3 19 -12 6z"/>
<path d="M2826 2038 c3 -4 9 -8 15 -8 5 0 9 4 9 8 0 5 -7 9 -15 9 -8 0 -12 -4
-9 -9z"/>
<path d="M3034 2028 l-19 -23 23 19 c21 18 27 26 19 26 -2 0 -12 -10 -23 -22z"/>
<path d="M3176 2041 c-3 -4 4 -17 17 -27 22 -19 22 -19 4 2 -9 11 -14 24 -10
27 3 4 4 7 0 7 -3 0 -8 -4 -11 -9z"/>
<path d="M3236 2035 c-9 -26 -7 -32 5 -12 6 10 9 21 6 23 -2 3 -7 -2 -11 -11z"/>
<path d="M3355 2040 c3 -6 1 -10 -6 -10 -7 0 -10 -3 -6 -6 3 -3 13 -2 22 4 16
8 16 9 1 15 -10 4 -15 3 -11 -3z"/>
<path d="M2934 2029 c-3 -6 -2 -15 3 -20 5 -5 9 -1 9 11 0 23 -2 24 -12 9z"/>
<path d="M3634 2029 c-3 -6 -2 -15 3 -20 5 -5 9 -1 9 11 0 23 -2 24 -12 9z"/>
<path d="M935 2020 c-4 -6 -3 -16 3 -22 6 -6 12 -6 17 2 4 6 3 16 -3 22 -6 6
-12 6 -17 -2z"/>
<path d="M2030 2020 c0 -6 7 -13 15 -16 12 -5 13 -10 4 -20 -6 -8 -9 -14 -6
-14 2 0 9 6 15 13 9 10 6 17 -8 30 -11 9 -20 12 -20 7z"/>
<path d="M2275 2020 c-3 -5 -1 -10 4 -10 6 0 11 5 11 10 0 6 -2 10 -4 10 -3 0
-8 -4 -11 -10z"/>
<path d="M3285 2020 c3 -5 8 -10 11 -10 2 0 4 5 4 10 0 6 -5 10 -11 10 -5 0
-7 -4 -4 -10z"/>
<path d="M3670 2020 c0 -5 5 -10 11 -10 5 0 7 5 4 10 -3 6 -8 10 -11 10 -2 0
-4 -4 -4 -10z"/>
<path d="M4505 2020 c-4 -6 -3 -16 3 -22 6 -6 12 -6 17 2 4 6 3 16 -3 22 -6 6
-12 6 -17 -2z"/>
<path d="M490 2005 c-19 -23 2 -65 33 -65 29 0 50 38 35 63 -11 21 -51 22 -68
2z"/>
<path d="M2333 2005 c0 -8 4 -12 9 -9 5 3 6 10 3 15 -9 13 -12 11 -12 -6z"/>
<path d="M3313 2005 c0 -8 4 -12 9 -9 5 3 6 10 3 15 -9 13 -12 11 -12 -6z"/>
<path d="M4900 2000 c-13 -24 6 -60 32 -60 19 0 48 26 48 44 0 36 -62 49 -80
16z"/>
<path d="M2130 2000 c0 -5 5 -10 11 -10 5 0 7 5 4 10 -3 6 -8 10 -11 10 -2 0
-4 -4 -4 -10z"/>
<path d="M2180 2000 c-9 -6 -10 -10 -3 -10 6 0 15 5 18 10 8 12 4 12 -15 0z"/>
<path d="M2390 2006 c0 -2 7 -7 16 -10 8 -3 12 -2 9 4 -6 10 -25 14 -25 6z"/>
<path d="M3394 2002 c4 -3 14 -7 22 -8 9 -1 13 0 10 4 -4 3 -14 7 -22 8 -9 1
-13 0 -10 -4z"/>
<path d="M3470 1983 c0 -6 8 -17 18 -24 16 -13 16 -13 2 6 -8 11 -16 22 -17
24 -2 2 -3 0 -3 -6z"/>
<path d="M3570 1979 c0 -5 5 -7 10 -4 6 3 10 8 10 11 0 2 -4 4 -10 4 -5 0 -10
-5 -10 -11z"/>
<path d="M766 1926 c243 -120 388 -267 379 -383 -8 -100 -88 -158 -164 -118
-41 21 -56 63 -38 107 20 47 39 59 31 20 -13 -64 71 -88 90 -25 9 29 -25 63
-63 63 -41 0 -81 -49 -81 -99 0 -65 68 -114 143 -103 42 6 93 60 107 112 14
50 8 116 -14 159 -21 39 -111 131 -167 169 -81 55 -290 152 -327 152 -3 0 43
-24 104 -54z"/>
<path d="M4685 1941 c-210 -88 -367 -216 -396 -324 -30 -114 34 -227 129 -229
111 -1 165 111 87 180 -35 30 -80 29 -101 -3 -15 -23 -15 -27 0 -50 31 -47 97
-18 83 36 -8 32 12 21 30 -15 14 -29 14 -39 3 -66 -14 -33 -55 -60 -90 -60
-37 0 -80 33 -101 78 -62 127 60 277 351 431 63 33 111 60 105 60 -5 0 -50
-17 -100 -38z"/>
<path d="M970 1956 c0 -9 7 -16 16 -16 17 0 14 22 -4 28 -7 2 -12 -3 -12 -12z"/>
<path d="M2005 1960 c-3 -6 1 -7 9 -4 18 7 21 14 7 14 -6 0 -13 -4 -16 -10z"/>
<path d="M2115 1960 c3 -5 8 -10 11 -10 2 0 4 5 4 10 0 6 -5 10 -11 10 -5 0
-7 -4 -4 -10z"/>
<path d="M3595 1960 c3 -5 8 -10 11 -10 2 0 4 5 4 10 0 6 -5 10 -11 10 -5 0
-7 -4 -4 -10z"/>
<path d="M4467 1963 c-12 -11 -8 -23 8 -23 8 0 15 7 15 15 0 16 -12 20 -23 8z"/>
<path d="M566 1934 c-9 -24 -8 -31 10 -48 27 -27 72 11 58 49 -8 20 -60 19
-68 -1z"/>
<path d="M4830 1935 c-10 -12 -9 -20 3 -39 19 -28 53 -25 62 6 13 39 -38 65
-65 33z"/>
<path d="M655 1879 c-10 -32 16 -55 44 -39 32 16 24 54 -11 58 -20 2 -28 -2
-33 -19z"/>
<path d="M4747 1893 c-12 -11 -8 -40 7 -52 26 -22 63 10 50 44 -6 15 -45 21
-57 8z"/>
<path d="M764 1856 c-20 -15 -13 -43 12 -53 10 -4 22 1 30 11 24 33 -9 66 -42
42z"/>
<path d="M4656 1854 c-12 -12 -13 -20 -6 -35 11 -20 19 -23 44 -13 19 7 21 35
4 52 -16 16 -23 15 -42 -4z"/>
<path d="M853 1814 c-3 -8 1 -23 10 -31 23 -23 52 0 36 28 -12 23 -37 25 -46
3z"/>
<path d="M4562 1817 c-9 -10 -9 -18 1 -31 16 -22 45 -11 43 17 -1 25 -28 34
-44 14z"/>
<path d="M944 1765 c-4 -9 -2 -21 4 -27 15 -15 44 -1 40 19 -4 23 -36 29 -44
8z"/>
<path d="M4474 1765 c-7 -18 3 -35 21 -35 15 0 28 27 19 41 -8 14 -34 11 -40
-6z"/>
<path d="M1027 1704 c-14 -15 -6 -34 14 -34 14 0 19 5 17 17 -3 18 -20 27 -31
17z"/>
<path d="M4403 1704 c-18 -8 -4 -34 19 -34 13 0 18 6 16 17 -3 18 -16 24 -35
17z"/>
<path d="M1216 1591 c-10 -16 5 -42 23 -39 21 4 21 42 -1 46 -9 2 -19 -1 -22
-7z"/>
<path d="M4203 1584 c-3 -8 -1 -20 6 -27 14 -14 47 15 37 32 -10 16 -36 13
-43 -5z"/>
<path d="M1233 1524 c-6 -17 15 -37 29 -28 13 9 9 32 -7 38 -9 3 -18 -1 -22
-10z"/>
<path d="M4194 1525 c-3 -8 -3 -19 0 -24 9 -13 36 -2 36 14 0 19 -30 27 -36
10z"/>
<path d="M4201 1470 c-19 -11 -6 -41 14 -34 16 6 20 29 7 38 -4 2 -14 1 -21
-4z"/>
<path d="M1230 1455 c0 -8 2 -15 4 -15 2 0 11 -3 20 -6 12 -4 16 0 16 15 0 14
-6 21 -20 21 -11 0 -20 -7 -20 -15z"/>
<path d="M1222 1397 c3 -24 21 -27 26 -4 2 8 -4 17 -13 21 -13 4 -16 1 -13
-17z"/>
<path d="M4214 1406 c-4 -10 -2 -22 4 -28 8 -8 13 -7 18 6 4 10 2 22 -4 28 -8
8 -13 7 -18 -6z"/>
<path d="M4255 1360 c-7 -12 2 -30 16 -30 12 0 12 27 0 35 -5 3 -12 1 -16 -5z"/>
<path d="M1180 1344 c0 -17 22 -14 28 4 2 7 -3 12 -12 12 -9 0 -16 -7 -16 -16z"/>
<path d="M1131 1331 c-10 -6 -10 -10 -1 -16 13 -8 24 -1 19 14 -3 6 -10 7 -18
2z"/>
<path d="M4305 1330 c-8 -13 15 -24 27 -12 6 6 4 11 -6 15 -8 3 -18 2 -21 -3z"/>
<path d="M1070 1311 c0 -6 5 -13 10 -16 6 -3 10 1 10 9 0 9 -4 16 -10 16 -5 0
-10 -4 -10 -9z"/>
<path d="M4370 1304 c0 -8 5 -12 10 -9 6 3 10 10 10 16 0 5 -4 9 -10 9 -5 0
-10 -7 -10 -16z"/>
<path d="M1435 1260 c-8 -13 3 -30 20 -30 14 0 27 24 18 34 -10 9 -31 7 -38
-4z"/>
<path d="M1495 1260 c-8 -13 3 -30 20 -30 14 0 27 24 18 34 -10 9 -31 7 -38
-4z"/>
<path d="M1566 1257 c-18 -13 -17 -47 1 -47 23 1 36 19 27 40 -8 18 -11 19
-28 7z"/>
<path d="M3800 1255 c-39 -48 -277 -191 -414 -249 -84 -36 -253 -90 -321 -102
-131 -23 -238 -32 -370 -29 -82 2 -161 6 -175 9 -14 2 -43 7 -65 11 -233 34
-519 156 -729 311 l-61 45 50 -46 c116 -106 333 -230 500 -284 160 -53 257
-73 420 -86 22 -2 43 -3 46 -4 3 -1 4 -14 1 -29 -8 -57 62 -85 94 -37 9 14 13
32 9 45 -3 11 -3 20 2 21 99 8 187 20 268 34 156 29 371 116 522 212 99 62
262 193 240 193 -2 0 -10 -7 -17 -15z"/>
<path d="M3871 1256 c-16 -19 -7 -46 14 -46 22 0 30 29 13 46 -13 13 -16 13
-27 0z"/>
<path d="M3926 1262 c-2 -4 -1 -14 4 -21 11 -19 41 -6 34 14 -6 16 -29 20 -38
7z"/>
<path d="M3990 1250 c0 -15 5 -20 18 -18 9 2 17 10 17 18 0 8 -8 16 -17 18
-13 2 -18 -3 -18 -18z"/>
<path d="M1375 1240 c-8 -12 20 -24 35 -15 6 3 8 11 5 16 -8 12 -32 12 -40 -1z"/>
<path d="M4050 1235 c0 -10 7 -15 18 -13 21 4 19 22 -2 26 -10 2 -16 -3 -16
-13z"/>
<path d="M1335 1199 c-10 -15 1 -23 20 -15 9 3 13 10 10 16 -8 13 -22 13 -30
-1z"/>
<path d="M4095 1200 c-3 -6 1 -13 10 -16 19 -8 30 0 20 15 -8 14 -22 14 -30 1z"/>
<path d="M1492 1173 c-13 -2 -41 -22 -63 -44 -36 -36 -39 -44 -39 -92 0 -59
15 -84 65 -109 57 -29 135 16 135 78 0 52 -53 79 -86 43 -14 -16 -16 -25 -8
-47 9 -23 15 -27 47 -26 44 1 45 0 13 -21 -38 -25 -67 -26 -102 -4 -70 43 -52
139 33 180 129 62 282 -62 430 -349 67 -129 72 -136 40 -52 -75 199 -197 373
-296 424 -33 17 -128 28 -169 19z"/>
<path d="M3811 1159 c-103 -46 -231 -223 -307 -427 -33 -87 -26 -79 35 45 81
161 196 304 281 348 53 27 105 29 154 5 43 -20 76 -66 76 -104 0 -32 -24 -66
-59 -82 -34 -16 -37 -16 -72 3 -24 13 -36 16 -32 8 13 -37 116 -44 148 -11 30
30 43 76 33 120 -11 51 -31 74 -85 98 -51 23 -118 21 -172 -3z"/>
<path d="M1310 1146 c0 -8 5 -18 10 -21 6 -3 10 3 10 14 0 12 -4 21 -10 21 -5
0 -10 -6 -10 -14z"/>
<path d="M4130 1139 c0 -11 5 -17 10 -14 6 3 10 13 10 21 0 8 -4 14 -10 14 -5
0 -10 -9 -10 -21z"/>
<path d="M1295 1080 c3 -5 10 -10 16 -10 5 0 9 5 9 10 0 6 -7 10 -16 10 -8 0
-12 -4 -9 -10z"/>
<path d="M4140 1080 c0 -5 4 -10 9 -10 6 0 13 5 16 10 3 6 -1 10 -9 10 -9 0
-16 -4 -16 -10z"/>
<path d="M1677 1064 c-4 -4 -7 -16 -7 -26 0 -20 25 -25 36 -7 8 13 -19 43 -29
33z"/>
<path d="M3754 1055 c-3 -8 -3 -19 1 -25 11 -17 35 -11 35 9 0 23 -29 36 -36
16z"/>
<path d="M3892 1054 c-30 -21 -30 -69 1 -78 34 -9 44 -7 61 10 43 43 -12 104
-62 68z"/>
<path d="M1894 990 c35 -42 65 -101 110 -220 46 -117 75 -169 126 -219 53 -52
115 -76 181 -68 69 8 117 39 224 142 50 48 81 81 70 74 -11 -8 -25 -18 -31
-24 -81 -74 -201 -152 -251 -161 -51 -10 -96 3 -147 41 -52 41 -80 85 -153
244 -53 114 -101 189 -138 211 -13 9 -11 3 9 -20z"/>
<path d="M3540 974 c-26 -28 -61 -87 -91 -152 -92 -198 -119 -240 -188 -280
-93 -54 -177 -30 -328 95 -42 35 -79 63 -82 63 -16 -2 176 -170 216 -190 158
-79 290 5 378 238 42 110 79 188 104 217 58 68 52 74 -9 9z"/>
<path d="M1940 985 c0 -8 5 -15 10 -15 6 0 10 7 10 15 0 8 -4 15 -10 15 -5 0
-10 -7 -10 -15z"/>
<path d="M3500 985 c0 -8 5 -15 10 -15 6 0 10 7 10 15 0 8 -4 15 -10 15 -5 0
-10 -7 -10 -15z"/>
<path d="M1734 975 c-7 -18 3 -35 21 -35 18 0 26 15 19 34 -8 20 -33 21 -40 1z"/>
<path d="M3684 975 c-4 -9 -2 -21 4 -27 15 -15 44 -1 40 19 -4 23 -36 29 -44
8z"/>
<path d="M1995 951 c-7 -12 12 -24 25 -16 11 7 4 25 -10 25 -5 0 -11 -4 -15
-9z"/>
<path d="M3435 951 c-7 -12 12 -24 25 -16 11 7 4 25 -10 25 -5 0 -11 -4 -15
-9z"/>
<path d="M1781 896 c-15 -18 -3 -46 20 -46 25 0 35 26 19 45 -15 19 -24 19
-39 1z"/>
<path d="M2030 895 c0 -8 9 -15 20 -15 13 0 18 5 14 15 -4 8 -12 15 -20 15 -8
0 -14 -7 -14 -15z"/>
<path d="M3396 901 c-3 -5 1 -14 8 -20 16 -13 32 2 21 19 -8 12 -22 13 -29 1z"/>
<path d="M3642 898 c-26 -26 -8 -54 27 -43 19 6 22 20 8 43 -10 15 -20 15 -35
0z"/>
<path d="M2055 840 c-8 -14 3 -30 21 -30 8 0 14 9 14 20 0 21 -24 28 -35 10z"/>
<path d="M3370 830 c0 -11 6 -20 13 -20 19 0 27 10 20 26 -8 21 -33 17 -33 -6z"/>
<path d="M1816 804 c-20 -19 -20 -28 -1 -44 19 -16 41 -7 48 19 7 30 -26 47
-47 25z"/>
<path d="M3605 804 c-11 -12 -12 -20 -5 -35 12 -22 33 -25 49 -5 25 30 -16 67
-44 40z"/>
<path d="M2267 783 c18 -14 30 -15 133 -16 103 0 183 5 205 14 25 10 -3 11
-208 13 -120 1 -144 -1 -130 -11z"/>
<path d="M2875 790 c-35 -5 -37 -6 -15 -12 66 -16 301 -14 334 4 21 11 3 13
-127 13 -84 0 -170 -2 -192 -5z"/>
<path d="M2079 774 c-10 -13 -10 -17 1 -24 17 -10 40 -2 40 15 0 20 -27 26
-41 9z"/>
<path d="M3353 783 c-17 -6 -16 -30 1 -36 21 -8 40 17 24 30 -7 6 -19 8 -25 6z"/>
<path d="M2559 742 c-25 -9 -80 -39 -123 -66 -68 -43 -86 -50 -132 -50 -46 -1
-52 -3 -37 -13 22 -17 85 -16 126 1 18 7 71 39 117 70 46 31 89 56 96 56 7 0
16 5 19 10 9 14 -13 12 -66 -8z"/>
<path d="M2846 745 c10 -8 24 -15 30 -15 5 0 39 -21 75 -46 35 -25 80 -53 99
-63 43 -22 117 -26 148 -8 21 12 18 13 -31 13 -58 -1 -81 8 -167 65 -71 47
-209 96 -154 54z"/>
<path d="M2104 715 c-6 -15 2 -35 14 -35 18 1 32 18 26 33 -8 21 -33 22 -40 2z"/>
<path d="M3317 723 c-12 -12 -7 -31 10 -37 19 -8 34 10 26 31 -5 14 -25 17
-36 6z"/>
<path d="M1840 705 c-18 -22 -1 -50 31 -50 20 0 24 5 24 30 0 23 -5 31 -21 33
-11 2 -27 -4 -34 -13z"/>
<path d="M3564 705 c-14 -37 26 -69 53 -43 12 12 13 20 4 37 -13 24 -49 28
-57 6z"/>
<path d="M2621 604 l-104 -104 91 -90 c51 -49 92 -93 92 -97 0 -5 -23 -28 -50
-53 l-50 -44 21 -22 20 -22 -20 -19 c-21 -19 -20 -19 47 -86 l68 -68 63 66
c60 62 62 66 47 87 -14 20 -14 24 1 40 16 18 14 21 -30 66 -26 26 -47 51 -47
56 0 4 40 48 90 97 l90 89 -106 105 c-59 58 -109 105 -113 104 -3 0 -53 -47
-110 -105z m195 -29 l77 -76 -79 -74 c-43 -41 -82 -75 -85 -75 -4 0 -41 33
-83 74 l-76 75 76 75 c42 42 80 76 84 76 5 0 43 -34 86 -75z m-31 -321 c24
-25 33 -40 26 -47 -6 -6 -20 1 -41 22 -17 17 -35 31 -38 31 -4 0 -20 -14 -36
-30 -34 -35 -63 -41 -46 -11 12 23 70 71 87 71 6 0 27 -16 48 -36z m-23 -57
l27 -23 -31 -28 -31 -27 -24 27 -23 27 22 24 c26 28 27 28 60 0z m-37 -101 c9
-7 24 0 51 24 22 19 40 28 42 22 4 -13 -32 -60 -65 -85 -21 -17 -23 -16 -67
29 -50 50 -53 78 -4 42 16 -13 36 -27 43 -32z"/>
<path d="M2721 603 c0 -5 4 -17 9 -28 8 -18 9 -17 9 8 1 15 -3 27 -9 27 -5 0
-10 -3 -9 -7z"/>
<path d="M2726 535 c-3 -8 -1 -15 4 -15 6 0 10 7 10 15 0 8 -2 15 -4 15 -2 0
-6 -7 -10 -15z"/>
<path d="M2142 667 c-9 -11 -8 -18 6 -30 21 -19 46 -8 40 19 -4 23 -31 30 -46
11z"/>
<path d="M3274 665 c-8 -20 3 -48 18 -43 6 2 16 12 22 21 8 13 7 20 -4 27 -21
14 -30 12 -36 -5z"/>
<path d="M1891 627 c-18 -18 -13 -55 9 -62 25 -8 50 10 50 36 0 29 -39 46 -59
26z"/>
<path d="M3523 633 c-7 -2 -13 -15 -13 -27 0 -48 55 -64 66 -19 5 19 2 30 -11
40 -20 14 -23 14 -42 6z"/>
<path d="M1955 553 c-23 -22 -18 -52 10 -65 30 -14 55 3 55 38 0 36 -39 53
-65 27z"/>
<path d="M3457 558 c-21 -11 -22 -51 -2 -68 20 -17 65 2 65 27 0 36 -34 58
-63 41z"/>
</g>
</svg>
